<svg width="146" height="160" viewBox="0 0 146 160" fill="none" xmlns="http://www.w3.org/2000/svg">
<path d="M79.0729 94.2929C78.9793 94.2278 78.8881 94.1599 78.795 94.0945C80.5499 92.1407 82.1551 90.0909 83.6642 88.3928C84.1812 87.8106 84.7099 87.2376 85.2421 86.6683C85.2658 86.6893 85.2889 86.7113 85.3126 86.7324C85.7897 87.1515 86.5399 86.5057 86.0604 86.0604C86.0164 86.0197 85.9723 85.9789 85.9287 85.938C91.4444 80.1564 97.6593 74.9503 103.37 69.3909C112.333 60.6662 120.043 50.7175 129.311 42.2875C130.164 42.9019 131.054 43.4072 131.964 43.6374C132.489 43.7699 132.81 43.3443 132.734 42.9344C133.398 42.3506 134.061 41.7669 134.724 41.1834C135.116 40.8387 134.98 40.3261 134.63 40.0284C132.088 37.8665 129.583 35.6561 127.085 33.4356C127.156 33.485 127.24 33.5193 127.352 33.5123C128.91 33.4181 130.081 31.6223 131.027 30.5577C132.744 28.624 134.323 26.5757 135.977 24.5899C136.009 24.5509 136.035 24.5122 136.056 24.4733C137.434 25.5087 138.81 26.5467 140.174 27.5993C140.419 27.7878 140.807 27.7254 141.024 27.5299C142.55 26.1551 144.008 24.7472 145.288 23.1375C145.49 22.8839 145.399 22.5123 145.219 22.2829C138.508 13.7828 129.076 8.09845 120.931 1.13208C120.506 0.768295 119.917 0.83985 119.698 1.39666C118.942 3.30916 117.8 5.28709 117.476 7.33149C117.467 7.39019 117.478 7.43998 117.485 7.49171C117.249 7.53983 117.053 7.83253 117.183 8.07237C117.747 9.11734 118.488 10.0916 119.327 11.0129C118.184 11.769 117.185 13.0463 116.343 13.8949C115.15 15.0971 113.963 16.3385 112.867 17.6486C112.658 17.6289 112.421 17.7999 112.477 18.0499C112.481 18.0678 112.486 18.0848 112.491 18.1024C112.073 18.6189 111.67 19.146 111.29 19.6869C108.176 17.135 104.995 14.6695 101.691 12.3581C101.464 12.1991 101.116 12.2315 100.917 12.4211C100.116 13.1831 99.3738 13.9236 98.8231 14.8467C98.4254 14.7541 98.0137 15.2044 98.3572 15.5827C98.4059 15.6367 98.4577 15.6873 98.5068 15.741C98.5431 15.8225 98.61 15.8867 98.6905 15.9358C99.5547 16.8703 100.445 17.777 101.362 18.6567C94.908 23.8919 88.9801 29.6879 83.2669 35.7051C83.1722 35.7308 83.0945 35.8019 83.0732 35.9104C77.348 41.9507 71.8337 48.2075 66.2281 54.35C66.0611 54.3043 65.847 54.3992 65.8611 54.5989C65.8646 54.6467 65.8667 54.6943 65.8702 54.7421C64.8414 55.8673 63.8107 56.9896 62.7734 58.1048C62.603 57.9598 62.2691 58.1359 62.3143 58.394C62.3239 58.4493 62.329 58.505 62.3382 58.5605C57.7483 63.3624 52.1171 67.0558 47.7521 72.0835C45.9037 74.2126 45.1969 76.4532 45.0801 78.7941C45.0409 78.8051 45.0034 78.8114 44.9626 78.8271C44.8408 78.8738 44.9334 79.0472 45.052 79.0056C45.0582 79.0032 45.0642 79.0059 45.0708 79.0039C44.9796 81.6305 45.6107 84.3816 46.227 87.2464C46.9506 90.6102 47.2061 94.5833 48.8359 97.5779C46.7874 101.832 43.3723 105.233 40.0435 108.531C36.3967 112.142 32.9154 115.9 29.3887 119.628C21.5417 127.926 13.674 136.344 7.44965 145.963C7.43277 145.99 7.42676 146.016 7.4156 146.043C7.32442 146.073 7.24214 146.134 7.18832 146.248C7.15137 146.326 7.11917 146.41 7.08989 146.499C6.98461 146.532 6.8799 146.572 6.77463 146.612C6.47648 146.363 5.9675 146.551 5.93992 147.006C2.07269 149.176 -1.22471 155.716 2.31452 158.69C4.54319 160.563 7.50353 159.166 8.08029 156.602C8.79883 153.408 7.14598 149.954 7.99533 146.826C8.0617 146.808 8.12862 146.785 8.19416 146.773C8.30126 146.752 8.35953 146.668 8.37528 146.574C17.9228 142.164 24.2679 132.967 31.1522 125.394C38.5169 117.293 47.0215 110.315 53.6871 101.564C55.9145 102.232 58.4176 101.992 60.6851 101.863C63.495 101.703 66.3353 101.455 69.0894 100.86C72.5685 100.107 75.5298 97.616 78.1527 94.8007C78.2893 94.8976 78.4235 94.9984 78.5612 95.0933C79.0643 95.4401 79.5757 94.6411 79.0729 94.2929ZM5.17291 156.975C5.17863 156.988 5.18782 156.996 5.19437 157.009C5.03987 157.009 4.9014 157.02 4.77758 157.044C4.85551 156.848 4.92704 156.659 4.99522 156.474C5.05408 156.641 5.10276 156.805 5.17291 156.975ZM4.48348 153.728C4.47679 153.979 4.45769 154.222 4.42368 154.455C4.41658 154.44 4.41279 154.424 4.40345 154.409C4.35409 154.33 4.28185 154.251 4.19833 154.173C4.19567 154.101 4.18813 154.027 4.18451 153.954C4.2478 153.899 4.30359 153.828 4.33579 153.723C4.38376 153.565 4.42781 153.406 4.4748 153.248C4.47327 153.411 4.47818 153.57 4.48348 153.728ZM4.89422 152.57C4.80401 152.579 4.71782 152.603 4.6474 152.658C4.69145 152.505 4.73552 152.352 4.7786 152.198C4.87495 151.917 4.98229 151.641 5.09495 151.368C5.03766 151.771 4.96852 152.171 4.89422 152.57ZM127.278 32.5171C126.892 32.609 126.8 33.1017 126.997 33.3572C123.03 29.8301 119.079 26.2803 115.043 22.8361C115.119 22.7801 115.172 22.6961 115.166 22.5771C115.098 21.11 115.212 19.6489 115.231 18.1851C115.634 18.9128 116.008 19.6439 116.23 20.4924C116.332 20.8796 116.987 20.8772 116.964 20.4371C116.886 18.9507 117.026 17.4897 117.149 16.018C117.563 16.7296 117.992 17.4314 118.366 18.1692C118.512 18.4579 119.051 18.3968 119.025 18.0323C118.934 16.7451 119.063 15.4748 119.184 14.1983C119.672 15.009 120.251 15.7715 120.685 16.6163C120.848 16.9351 121.309 16.8213 121.343 16.4794C121.453 15.3868 121.579 14.3364 121.57 13.2574C121.678 13.3304 121.788 13.4014 121.899 13.4703C123.51 14.8486 125.226 16.1133 126.732 17.326C129.439 19.5063 132.22 21.5923 135 23.6785C134.932 23.7201 134.867 23.7712 134.81 23.841C133.562 25.3534 132.357 26.9013 131.12 28.4224C130.362 29.3535 128.585 32.2059 127.278 32.5171ZM120.272 11.9925C120.463 12.1786 120.66 12.3608 120.857 12.5423C120.924 13.5006 120.842 14.4275 120.75 15.3651C120.228 14.5579 119.657 13.7812 119.279 12.8993C119.618 12.6043 119.954 12.3056 120.272 11.9925ZM118.308 16.6471C117.932 16.0089 117.549 15.3752 117.214 14.7103C117.642 14.3028 118.095 13.9131 118.552 13.5241C118.456 14.5682 118.337 15.6052 118.308 16.6471ZM114.139 22.0734C113.416 21.4618 112.696 20.8445 111.967 20.241C112.247 19.9037 112.538 19.5757 112.827 19.2465C113.177 20.2245 113.652 21.1455 114.139 22.0734ZM113.44 18.5572C113.782 18.1811 114.126 17.8068 114.477 17.4391C114.491 18.5255 114.442 19.6095 114.419 20.6944C114.082 19.9869 113.756 19.2747 113.44 18.5572ZM115.24 16.6609C115.653 16.2418 116.069 15.826 116.489 15.4148C116.394 16.4541 116.29 17.4865 116.238 18.5229C115.925 17.9015 115.573 17.2978 115.24 16.6609ZM140.84 19.4322C141.796 20.3883 142.682 21.408 143.547 22.445C144.109 23.1186 141.042 25.6105 140.619 25.9987C140.137 26.4405 129.943 18.0967 128.942 17.3193C126.913 15.744 125.02 14.0219 123.134 12.2965C123.139 12.072 123.146 11.8322 123.188 11.548C123.233 11.2389 122.804 11.2196 122.694 11.4577C122.624 11.611 122.584 11.6988 122.559 11.7707C122.015 11.2734 121.468 10.78 120.92 10.288C120.658 9.207 120.42 8.12102 120.17 7.03713C120.931 8.11012 121.724 9.1612 122.399 10.2921C122.612 10.649 123.168 10.4786 123.094 10.0515C122.897 8.9216 122.677 7.79503 122.411 6.68019C122.802 7.35006 123.196 8.0184 123.591 8.68548C123.804 9.04454 124.42 8.87997 124.311 8.4364C124.146 7.77154 124.003 7.10766 123.831 6.45088C124.455 7.01142 125.106 7.54796 125.75 8.06317C126.066 8.31681 126.382 7.83906 126.178 7.55865C125.935 7.224 125.646 6.92714 125.339 6.64534C127.912 8.66771 130.536 10.6289 133.109 12.6476C135.812 14.7669 138.411 17.0032 140.84 19.4322ZM122.647 5.28561C122.737 5.51053 122.812 5.73907 122.884 5.96845C122.418 5.16514 121.962 4.35654 121.523 3.53844C121.995 3.93862 122.471 4.33504 122.95 4.72741C122.723 4.76633 122.539 5.01453 122.647 5.28561ZM121.165 3.23571C120.919 3.22192 120.667 3.47293 120.778 3.78542C121.306 5.28107 121.654 6.81828 121.98 8.36344C121.199 7.26424 120.388 6.18652 119.677 5.03837C119.674 5.03377 119.669 5.03099 119.666 5.02639C119.988 4.2816 120.335 3.54393 120.664 2.80946C120.829 2.9528 120.999 3.09251 121.165 3.23571ZM118.749 7.56403C118.852 7.17414 118.978 6.78814 119.116 6.40425C119.411 7.42468 119.745 8.43452 120.043 9.45342C120.049 9.47713 120.055 9.50112 120.06 9.52469C119.469 9.00445 118.877 8.48616 118.271 7.98461C118.488 7.94639 118.683 7.81545 118.749 7.56403ZM108.317 19.0335C111.149 21.3149 113.907 23.6899 116.642 26.0855C122.162 30.921 127.556 35.8994 133.147 40.6535C132.683 41.0798 132.218 41.5064 131.753 41.9327C129.936 40.511 128.006 39.2317 126.24 37.7171C124.009 35.8027 121.907 33.7429 119.666 31.8413C114.429 27.3979 108.915 23.3216 103.645 18.9327C103.864 19.0585 104.192 18.9348 104.206 18.6386C104.226 18.2416 104.229 17.8529 104.224 17.4663C104.706 18.3122 105.248 19.1225 105.689 20.0097C105.864 20.3608 106.454 20.1728 106.349 19.7816C106.212 19.2757 106.093 18.8407 106.075 18.3702C106.624 19.2189 107.282 19.9826 107.979 20.7311C108.212 20.9814 108.627 20.703 108.475 20.3937C108.548 20.5425 108.206 19.0501 108.283 19.0473C108.297 19.0464 108.305 19.0364 108.317 19.0335ZM101.529 23.1687C101.185 22.2985 100.773 21.4599 100.507 20.5506C100.998 20.1151 101.483 19.6733 101.978 19.2429C102.008 19.2715 102.041 19.299 102.071 19.3276C102.07 19.3397 102.065 19.3496 102.066 19.3629C102.125 20.6682 101.849 21.9204 101.529 23.1687ZM107.263 18.1832C107.508 18.3767 107.748 18.576 107.991 18.7711C107.852 18.9908 107.778 19.2568 107.756 19.5344C107.209 18.8761 106.706 18.1942 106.299 17.4291C106.62 17.6808 106.943 17.93 107.263 18.1832ZM105.767 17.0128C105.664 17.0393 105.573 17.1093 105.54 17.2274C105.457 17.5255 105.417 17.8057 105.403 18.0795C104.961 17.3526 104.525 16.6246 104.213 15.8196C104.733 16.2155 105.252 16.6118 105.767 17.0128ZM102.808 14.7592C103.036 14.9277 103.259 15.1014 103.486 15.2711C103.398 15.3431 103.339 15.4567 103.359 15.613C103.431 16.1744 103.468 16.7249 103.48 17.2763C102.927 16.4232 102.314 15.6075 101.853 14.6962C101.729 14.4514 101.412 14.4591 101.246 14.6115C101.122 14.4584 100.988 14.3272 100.848 14.2096C101.367 13.9843 101.957 14.1312 102.808 14.7592ZM99.6104 15.4584C99.9047 15.0307 100.173 14.6933 100.449 14.4626C100.453 14.4754 100.453 14.4845 100.459 14.4987C100.6 14.8502 100.856 15.1882 101.049 15.5119C101.428 16.1455 101.812 16.7919 102.269 17.3731C102.38 17.5138 102.556 17.5042 102.688 17.4227C102.981 17.8631 103.263 18.3107 103.501 18.7858C103.515 18.8144 103.535 18.8358 103.554 18.8577C102.223 17.7467 100.902 16.6212 99.6104 15.4584ZM99.7321 21.2393C99.6668 22.6413 99.6261 24.0395 99.6611 25.4405C99.2816 24.7943 98.8932 24.1547 98.5489 23.4851C98.4239 23.2415 98.0214 23.2459 97.9465 23.5314C97.6447 24.6802 97.3619 25.8186 97.1564 26.9877C97.0118 27.2304 96.9508 27.4342 96.9714 27.5993C96.456 26.9695 96.0093 26.2987 95.6295 25.573C95.478 25.2842 95.0824 25.3951 95.042 25.6952C94.8548 27.0793 94.364 28.4024 94.0523 29.7602C94.1674 29.2586 93.3218 28.3292 92.7947 27.7416C95.0584 25.5223 97.373 23.3555 99.7321 21.2393ZM92.118 28.4097C92.0081 29.4232 91.6317 30.3631 91.2495 31.3207C90.8155 32.4071 90.4424 31.3536 90.0999 30.4302C90.7686 29.7529 91.4412 29.0785 92.118 28.4097ZM89.269 31.2694C89.2799 32.1649 89.2657 33.0591 89.2053 33.9599C89.1664 34.5351 89.6166 36.0514 89.0046 34.6206C88.7042 33.9181 88.358 33.2329 88.0379 32.538C88.4478 32.1142 88.8567 31.6906 89.269 31.2694ZM87.4137 33.1814C87.3914 34.4532 87.1513 35.6973 86.9631 36.9612C87.0604 36.3096 86.4892 35.3985 86.0594 34.598C86.5097 34.125 86.9603 33.6517 87.4137 33.1814ZM85.3915 35.3001C85.3443 36.4211 85.1606 37.5304 85.0796 38.6551C85.1089 38.2477 84.5674 37.4237 84.0938 36.6735C84.5249 36.2145 84.9583 35.7569 85.3915 35.3001ZM83.0293 37.8123C83.0185 38.8637 83.0179 39.915 83.0185 40.9672C83.0188 41.9356 83.465 42.6956 82.8863 41.5176C82.4789 40.6882 82.1473 39.8972 81.9076 39.0164C82.2803 38.6139 82.6548 38.2131 83.0293 37.8123ZM81.1895 39.7937C81.113 41.2714 81.0359 42.7483 80.9562 44.2257C81.1677 44.7911 81.0565 44.6652 80.622 43.8485C80.1859 43.1555 79.7458 42.5008 79.3691 41.7718C79.974 41.1111 80.5814 40.4524 81.1895 39.7937ZM78.756 42.4429C78.6314 43.2964 78.4723 44.1445 78.3406 44.9973C78.1088 46.4994 77.5073 45.3427 77.0577 44.3058C77.6225 43.6838 78.1893 43.063 78.756 42.4429ZM72.8117 48.9955C73.9102 47.779 75.0099 46.5636 76.1105 45.3494C76.0779 46.3247 76.1089 47.2956 76.1847 48.2857C76.2512 49.1586 77.2687 52.0406 76.0639 48.5088C75.8733 47.9501 75.6695 47.4224 75.4509 46.8751C75.3463 46.6131 74.9738 46.7351 74.9497 46.979C74.8034 48.4652 74.4767 49.923 74.2215 51.3935C74.1668 51.2934 74.1071 51.184 74.0382 51.0571C73.6204 50.2854 73.1478 49.7588 72.8117 48.9955ZM71.8801 50.0263C71.7754 50.8164 71.6687 51.606 71.6115 52.4031C71.4082 51.935 71.2044 51.4672 71.0011 50.9991C71.2939 50.6751 71.5872 50.3509 71.8801 50.0263ZM70.1089 51.9892C70.0148 53.0435 69.9872 54.097 69.9768 55.1644C69.9722 55.6116 70.0329 55.8812 70.0651 55.9866C70.0344 55.9043 69.9557 55.7254 69.7716 55.424C69.3704 54.7669 69.0174 54.1895 68.7462 53.5189C69.1997 53.0056 69.6535 52.4952 70.1089 51.9892ZM67.8439 54.5411C67.7961 55.0213 67.7368 55.5025 67.6837 55.9875C67.6327 55.9309 67.5786 55.8715 67.5147 55.8047C67.4097 55.6445 67.2836 55.4845 67.1521 55.3262C67.3836 55.0643 67.6139 54.8026 67.8439 54.5411ZM65.9876 56.6356C66.0396 57.4596 66.1013 58.2826 66.208 59.1052C66.2085 59.1114 66.2104 59.1169 66.2109 59.1232C65.8443 58.5796 65.4779 58.0836 65.1727 57.5342C65.4453 57.2352 65.7175 56.9366 65.9876 56.6356ZM61.2596 62.5283C61.5136 63.9361 60.7569 66.5308 61.4146 67.6495C60.6197 66.2978 59.5583 65.1219 58.7003 63.8087C59.5313 63.0957 60.3564 62.3764 61.1601 61.6314C61.6434 61.1835 62.1159 60.7222 62.5843 60.2546C62.7188 61.2792 62.834 62.3058 62.924 63.339C62.9508 63.6492 62.9873 63.8636 63.0194 64.0077C62.9618 63.8715 62.8635 63.6796 62.704 63.444C62.4252 63.0322 62.0697 62.6577 61.7413 62.2857C61.5531 62.0722 61.2112 62.2591 61.2596 62.5283ZM57.9087 64.4857C57.9637 65.9784 57.9498 67.473 58.0288 68.9655C57.9938 68.2994 56.7003 67.2366 55.9217 66.454C55.8442 66.3758 55.751 66.3612 55.6671 66.3821C56.4136 65.749 57.1621 65.1188 57.9087 64.4857ZM63.3624 59.4639C63.6991 59.1162 64.0319 58.7643 64.3631 58.41C64.3665 59.3739 64.3555 60.3372 64.4028 61.3009C64.3243 61.1768 64.2373 61.0391 64.1326 60.8738C63.836 60.4045 63.5859 59.9415 63.3624 59.4639ZM53.8753 67.9218C54.4095 67.4532 54.9501 66.9925 55.4912 66.5326C55.4777 66.5603 55.4593 66.5853 55.4544 66.6187C55.217 68.1687 55.2186 69.6656 55.3747 71.2203C55.4159 71.6309 55.5311 71.9125 55.5952 72.0377C55.5404 71.9546 55.4276 71.8008 55.2216 71.5634C54.4954 70.7279 53.8782 69.8475 53.3152 68.8898C53.161 68.6277 52.7884 68.7631 52.8237 69.0598C53.0485 70.9451 53.4686 72.7951 53.7728 74.6679C53.6004 73.6064 51.8427 71.7122 50.9668 70.4937C51.9372 69.591 52.9423 68.7402 53.8753 67.9218ZM47.3746 74.6713C48.1486 73.4005 49.1683 72.2409 50.2705 71.1597C50.3482 72.7135 50.6356 74.2114 51.0125 75.7446C51.0482 75.8906 51.0893 76.0202 51.1316 76.1353C51.0775 76.0523 51.0182 75.9625 50.9455 75.8581C50.322 74.9637 49.5701 74.155 48.8451 73.344C48.676 73.1547 48.317 73.3142 48.3886 73.5747C48.993 75.7845 49.5601 77.9801 49.8609 80.2547C49.6472 78.6381 48.4531 76.4321 47.4174 74.7219C47.4049 74.7013 47.3895 74.6873 47.3746 74.6713ZM46.8112 75.7069C46.865 75.5936 46.9248 75.483 46.9827 75.3713C47.1728 77.0241 47.5547 78.6247 47.9985 80.2238C47.9411 80.0463 47.8883 79.8936 47.8489 79.8002C47.3795 78.6883 46.9751 77.5487 46.5326 76.4255C46.6121 76.1804 46.7013 75.939 46.8112 75.7069ZM46.1912 80.0093C46.2645 80.1925 46.3335 80.3894 46.3968 80.604C46.557 81.6 46.7208 82.5954 46.8828 83.5914C46.9252 83.8526 46.9829 84.0987 47.0449 84.313C47.0954 84.7767 47.1322 85.1618 47.1605 85.4408C46.7839 83.7776 46.3195 81.8647 46.1912 80.0093ZM31.0356 123.946C24.2771 131.124 18.3007 140.267 9.36709 144.952C16.0083 135.259 24.2012 126.758 32.2474 118.234C35.6748 114.603 39.144 111.042 42.6496 107.488C45.2261 104.876 48.0151 101.946 49.3758 98.4574C50.1595 99.5875 51.1996 100.53 52.6244 101.176C46.2313 109.517 38.2104 116.326 31.0356 123.946ZM71.4686 93.9565C72.4701 94.7263 73.478 95.4006 74.3594 96.2856C73.826 96.7482 73.2789 97.1946 72.7044 97.5982C71.4387 96.7422 70.1507 95.848 68.832 95.1065C68.6068 94.9799 68.4266 95.2795 68.6197 95.4378C69.3367 96.0257 70.0843 96.5805 70.8168 97.149C71.1988 97.4454 71.5823 97.7759 71.9811 98.0768C70.8417 98.7887 69.6186 99.345 68.2894 99.6372C65.1716 100.322 61.8851 100.496 58.7063 100.63C55.1831 100.778 51.6722 100.305 49.8642 96.9305C49.8934 96.8149 49.927 96.7012 49.953 96.5842C50.0184 96.2862 49.7251 96.1174 49.5171 96.2241C48.1884 93.2081 48.0086 89.3639 47.3282 86.1926C47.3095 86.1065 47.2894 86.0166 47.27 85.9286C47.4071 86.059 47.6964 85.9482 47.6709 85.7042C47.4007 83.1392 46.9657 80.6017 46.5815 78.0523C46.1892 75.4484 46.5982 78.1789 46.9307 79.0528C47.4385 80.3881 48.0273 81.6518 48.7481 82.8843C48.8972 83.1397 49.3527 83.0208 49.2626 82.7063C48.6734 80.6506 48.0571 78.6106 47.6473 76.5096C47.2298 74.369 48.182 77.1484 48.4423 77.663C49.0314 78.8257 49.5009 80.0493 49.9624 81.2662C50.0773 81.569 50.4773 81.3659 50.4544 81.0959C50.2906 79.1482 49.9047 77.2742 49.4253 75.3815C49.171 74.3776 48.6457 73.906 49.5053 74.8925C50.2749 75.7759 50.9247 76.724 51.5482 77.7181C51.6967 77.9545 52.1259 77.855 52.0416 77.5474C51.4606 75.427 50.9019 73.3347 50.7514 71.1304C50.8232 72.1798 53.3293 74.7032 53.8996 75.6058C54.0586 75.857 54.4223 75.7372 54.3868 75.4375C54.1631 73.5521 53.7445 71.7017 53.4414 69.8287C53.5657 70.5979 54.9828 72.1034 55.7562 72.9697C55.9288 73.1634 56.2726 72.9983 56.2123 72.7393C55.8802 71.3068 55.7633 69.8898 55.786 68.4166C55.8234 65.9866 57.6989 68.9746 58.1192 69.6883C58.2797 69.9608 58.6569 69.8169 58.6255 69.5133C58.4672 67.9879 58.9092 65.4362 58.2616 64.1839C58.2642 64.1816 58.2665 64.1795 58.269 64.1778C59.1616 65.6716 60.3701 66.9567 61.2529 68.4619C61.3808 68.68 61.7862 68.652 61.7761 68.353C61.7286 66.9096 61.9113 65.4898 61.9796 64.0496C61.9783 63.7568 61.9664 63.4644 61.9436 63.1726C61.8723 62.7748 62.9124 64.8496 63.0989 65.2092C63.2554 65.5109 63.6516 65.3302 63.6259 65.027C63.4971 63.4953 63.3714 61.9644 63.1994 60.4367C63.6222 61.2377 64.1696 61.9942 64.6232 62.7771C64.7822 63.0518 65.2192 62.9187 65.156 62.5928C64.8594 61.0739 65.1082 59.4269 64.6993 58.0541C64.7118 58.0403 64.7251 58.0266 64.7376 58.0128C65.2623 59.0299 66.114 59.9648 66.6783 60.9307C66.8319 61.1939 67.3098 61.0704 67.2111 60.7465C66.9313 59.8302 66.4346 57.0252 66.5355 56.0219C66.6281 55.9179 66.7214 55.814 66.8137 55.7095C67 55.8566 67.286 56.35 67.7092 57.3526C67.8164 57.6068 68.2558 57.5235 68.2447 57.2414C68.1817 56.6483 68.1998 56.0574 68.2989 55.4692C68.3417 55.1645 68.3849 54.8596 68.4277 54.5549C68.4475 54.5193 68.4603 54.4878 68.4772 54.4542C68.9116 55.3024 69.5513 56.1014 69.9705 56.9132C70.0973 57.1586 70.4919 57.0889 70.5019 56.803C70.5512 55.3489 70.5421 53.8951 70.6114 52.4421C70.7184 50.2116 71.5034 53.5514 71.7926 54.2154C71.9224 54.5144 72.3703 54.3378 72.3161 54.0344C72.0492 52.5457 72.2774 51.1451 72.49 49.6867C72.5427 49.7821 72.5969 49.8795 72.6607 49.9971C73.1715 50.9345 73.7658 51.5113 74.0929 52.5929C74.1821 52.887 74.6036 52.873 74.6351 52.5523C74.7894 50.981 75.1369 49.4405 75.3907 47.8833C75.3067 48.3991 76.1287 50.3243 76.4385 51.1052C76.5351 51.349 76.9686 51.2678 76.9499 50.9987C76.8232 49.1845 76.6184 47.3783 76.6156 45.5577C76.6153 45.2854 76.586 45.0439 76.5592 44.8587C76.6056 44.8078 76.6518 44.7565 76.6982 44.7056C76.744 44.776 76.7989 44.862 76.8675 44.9704C77.2867 45.6335 77.8633 46.2183 78.3825 46.8022C78.5331 46.9719 78.8809 46.8826 78.8693 46.6305C78.8051 45.2363 79.0857 43.9144 79.3254 42.5473C79.2033 43.2451 80.5562 44.7613 80.9276 45.4787C81.0528 45.7209 81.4318 45.6477 81.4462 45.3711C81.5491 43.4237 81.8067 41.2977 81.4345 39.5331C81.4367 39.531 81.4382 39.5288 81.4405 39.5267C81.735 40.7624 82.4695 41.9393 83.0004 43.0809C83.1219 43.3419 83.5333 43.252 83.5437 42.9676C83.6055 41.2967 83.5866 39.627 83.5849 37.9549C83.5849 37.6757 83.5644 37.4447 83.5426 37.267C83.586 37.2206 83.6293 37.1742 83.6727 37.1277C83.7289 37.2202 83.799 37.3354 83.8904 37.4805C84.3277 38.1745 84.7708 38.829 85.1487 39.559C85.27 39.7935 85.6973 39.7437 85.6832 39.448C85.6272 38.2955 85.7862 37.1882 85.922 36.045C85.9616 35.8869 85.9903 35.7577 86.0142 35.6421C86.4148 36.3491 86.7117 37.1017 86.891 37.9061C86.9685 38.2164 87.4069 38.1797 87.4401 37.8651C87.5696 36.6373 87.8045 35.4298 87.9868 34.2097C88.0154 34.1465 88.0367 34.0924 88.0596 34.0361C88.3683 34.7022 88.6747 35.3638 88.9146 36.0662C89.0018 36.3211 89.4391 36.4404 89.5123 36.0979C89.7788 34.8519 89.8785 33.6029 89.9242 32.33C89.9255 32.0475 89.9272 31.7654 89.9289 31.4833C89.9413 31.443 89.9489 31.4101 89.9594 31.3723C90.24 31.8747 90.5418 32.3672 90.7981 32.884C90.9149 33.1191 91.2775 33.0955 91.3551 32.8413C91.7273 31.6239 92.2366 30.4583 92.6037 29.2388C92.6517 28.9772 92.7003 28.7158 92.7476 28.4541C92.7463 28.3262 93.8208 30.1961 93.9981 30.539C94.1436 30.8208 94.526 30.709 94.5659 30.4208C94.7634 29.005 95.3908 27.6894 95.5879 26.2811C95.4696 27.1287 96.5983 28.1509 97.1992 28.8301C97.3707 29.0239 97.7652 28.9204 97.7528 28.6344C97.6915 27.2002 98.0121 25.8667 98.3727 24.4806C98.2768 24.8497 99.5549 26.5609 99.7527 26.9474C99.8922 27.2201 100.398 27.1631 100.376 26.8176C100.276 25.2358 100.3 23.6627 100.364 22.0861C100.686 22.8545 101.03 23.6122 101.237 24.436C101.317 24.7543 101.808 24.8217 101.902 24.4718C102.25 23.1807 102.595 21.9221 102.703 20.613C103.037 21.1961 103.37 21.7782 103.628 22.4033C103.734 22.6617 104.174 22.6347 104.236 22.3566C104.271 22.0388 104.354 21.7484 104.472 21.478C108.848 25.2747 113.559 28.7133 118.018 32.3838C120.678 34.5732 123.137 37.0046 125.75 39.2516C126.497 39.894 127.327 40.6818 128.209 41.4216C125.364 44.0133 122.654 46.7496 120.003 49.5442C118.185 47.8382 116.227 46.07 114.046 44.8843C113.7 44.6957 113.376 45.1828 113.713 45.405C115.801 46.7851 117.415 48.6841 119.329 50.2568C118.52 51.1157 117.716 51.9783 116.915 52.8439C115.916 52.2234 114.895 51.6774 114.036 50.84C113.802 50.6108 113.439 50.9292 113.655 51.1823C114.392 52.0459 115.344 52.8614 116.345 53.4604C115.65 54.2144 114.956 54.9689 114.264 55.7242C113.898 55.4167 113.454 55.1602 113.11 54.8561C112.615 54.4182 112.143 53.9579 111.674 53.4933C111.42 53.2408 111.037 53.5848 111.261 53.865C111.727 54.4466 112.195 55.0244 112.719 55.556C113.001 55.8414 113.306 56.1603 113.653 56.3909C113.221 56.8618 112.789 57.3327 112.357 57.8028C112.003 58.1884 111.644 58.5684 111.288 58.9515C109.087 57.0756 106.873 55.5265 105.277 52.9571C105.125 52.7112 104.734 52.8952 104.869 53.1605C106.152 55.6735 108.169 58.1382 110.613 59.6765C109.663 60.6903 108.71 61.6989 107.751 62.7007C107.414 62.4739 107.045 62.2859 106.709 62.0578C105.99 61.5703 105.403 60.9062 104.941 60.1764C104.748 59.8732 104.263 60.0978 104.433 60.43C104.963 61.4726 105.994 62.7255 107.13 63.3453C106.519 63.9807 105.912 64.6207 105.296 65.2514C105.279 65.1827 105.236 65.118 105.155 65.0701C104.719 64.8147 104.231 64.7574 103.798 64.471C103.317 64.153 102.937 63.704 102.52 63.311C102.215 63.0234 101.783 63.4109 102.037 63.7449C102.596 64.4783 103.749 65.8879 104.84 65.7216C104.012 66.567 103.181 67.4083 102.345 68.2451C100.499 66.718 98.789 64.878 96.7664 63.6136C96.588 63.5018 96.3738 63.7425 96.5237 63.8993C96.5279 63.9038 96.5323 63.9087 96.5369 63.9129L96.5386 63.9136C98.2617 65.5426 99.7235 67.4805 101.622 68.9627C100.884 69.6986 100.147 70.4356 99.4024 71.1662C99.0392 70.934 98.6086 70.7703 98.2492 70.564C97.5747 70.1768 96.9019 69.7867 96.2133 69.4246C95.9469 69.2843 95.6944 69.6587 95.9571 69.8244C96.6148 70.2379 97.2541 70.6775 97.8961 71.1148C98.1929 71.317 98.4831 71.5628 98.7931 71.7622C98.2472 72.2948 97.708 72.8319 97.1583 73.3616C96.8726 73.0952 96.5346 72.9399 96.1772 72.7818C95.6696 72.557 95.1723 72.2481 94.751 71.8854C94.5021 71.6706 94.1563 71.9622 94.3656 72.2318C94.6929 72.6529 95.1145 72.967 95.5496 73.2697C95.8958 73.5108 96.2624 73.7444 96.6725 73.8275C95.8604 74.607 95.0563 75.3921 94.235 76.1651C94.2099 76.1891 94.1848 76.213 94.1594 76.2366C92.956 75.2872 91.7389 74.3572 90.5452 73.3952C89.7399 72.7465 88.7212 72.1604 87.9703 71.5461C87.8017 71.4084 87.6107 71.6711 87.7341 71.8245C89.2604 73.7231 91.3744 75.4745 93.4019 76.9556C92.6656 77.6531 91.93 78.3515 91.194 79.0495C90.7485 78.6413 90.104 78.387 89.6024 78.0652C88.8966 77.613 88.203 77.1383 87.4649 76.7391C87.1434 76.5649 86.838 77.0223 87.1549 77.2231C87.8646 77.6721 88.5271 78.1917 89.1993 78.6941C89.5951 78.9897 90.0587 79.4475 90.561 79.6498C89.8247 80.3492 89.085 81.0442 88.3509 81.7458C87.8684 81.3357 87.3057 81.0238 86.8204 80.604C86.3222 80.1731 85.8573 79.7005 85.3902 79.2366C85.1876 79.0351 84.8814 79.31 85.0606 79.5325C85.7879 80.4393 86.6891 81.743 87.7898 82.2854C86.8402 83.1959 85.8873 84.1031 84.9454 85.0224C82.7648 83.0035 80.5495 81.0168 78.0552 79.392C77.8409 79.2527 77.6587 79.564 77.8461 79.7182C80.1098 81.5807 82.0886 83.7366 84.2216 85.734C83.5971 86.3553 82.9919 86.9956 82.3987 87.6485C81.4169 86.9272 80.1734 86.4516 79.1385 85.8256C78.8577 85.6556 78.6041 86.0592 78.8654 86.2518C79.776 86.9215 80.779 87.7641 81.8367 88.2729C81.2199 88.9656 80.6114 89.6662 80.0038 90.3681C79.1837 89.7226 78.4446 89.0292 77.672 88.2947C77.4234 88.0586 77.0685 88.3774 77.2773 88.6497C77.8803 89.4363 78.6192 90.3497 79.4644 90.9893C78.8268 91.7233 78.1855 92.4535 77.5275 93.1678C75.1714 91.394 72.9682 89.4428 70.6878 87.5642C70.4211 87.3444 70.0492 87.7881 70.2952 88.0266C72.3899 90.0508 74.5575 92.0693 76.8793 93.855C76.7701 93.9695 76.6641 94.0861 76.5541 94.1993C76.0438 94.7245 75.5122 95.245 74.964 95.7496C73.9909 94.881 72.8621 94.1913 71.7371 93.54C71.4566 93.3802 71.2181 93.7639 71.4686 93.9565Z" fill="#007C89"/>
</svg>
